<svg xmlns="http://www.w3.org/2000/svg" width="3276.498" height="1382.488"><path d="M759.518 304.147L276.498 528.08v2.087l483.02 223.942 484.722-224.704v-.564L759.518 304.147zm0 368.176L450.634 529.128l308.894-143.204 308.923 143.204-308.933 143.195zm-483.02 113.628v81.588l483.02 221.123 484.722-221.875V785.2l-484.722 221.36-483.02-220.608zm0-165.451v81.588l483.02 221.093 484.722-221.845v-81.598l-484.722 221.35L276.498 620.5z" fill="#bdbafa"/><path d="M1925.144 402.109h-287.987V544.57h284.157v96.506h-284.157v271.137h-116.42V300.24h404.407V402.11zm463.383 66.635l-199.14 526.188q-22.212 58.976-58.21 85.018t-85.783 26.04q-7.66 0-16.85-1.148t-17.617-3.447l-36.764-102.633q13.02 6.127 26.807 9.574t26.042 3.446q26.041 0 47.487-11.871t32.934-44.04l15.319-44.424-170.8-442.703H2072.2l101.868 284.923 95.74-284.923h118.718zm236.67 441.17q-13.021 6.128-29.488 9.958t-34.084 3.83q-24.51 0-47.104-6.51t-39.445-21.064-26.807-37.913-9.957-56.295V276.498h112.59v506.274q0 27.573 11.106 37.913t26.424 10.34q19.148 0 36.764-11.489v90.379zm510.87-219.053q0 49.785-18.383 92.294t-50.55 73.528-75.444 49.02-92.294 17.998-91.91-17.999-75.06-49.402-50.551-73.911-18.382-91.528q0-48.253 18.765-90.761t50.933-74.295 75.06-49.785 91.145-17.999q49.02 0 92.294 18t75.443 49.018 50.551 73.912 18.382 91.91zm-110.293 0q0-28.339-9.957-52.848t-27.19-42.892-40.212-28.722-49.019-10.34-49.019 10.34-40.21 28.722-27.19 42.892-9.958 52.848 9.957 52.849 27.19 42.891 40.211 28.723 49.02 10.34 49.018-10.34 40.211-28.723 27.19-42.891 9.958-52.849z"/></svg>